<svg width="60" height="69" viewBox="0 0 60 69" fill="none" xmlns="http://www.w3.org/2000/svg">
<path fill-rule="evenodd" clip-rule="evenodd" d="M55.8242 14.0883L34.176 1.15756C31.5922 -0.385853 28.4073 -0.385853 25.8235 1.15756L4.17525 14.0883C1.59216 15.6317 0.00012207 18.4835 0.00012207 21.5703V47.4318C0.00012207 50.5179 1.59216 53.3711 4.17601 54.9146L25.8242 67.843C27.1162 68.6151 28.557 69 30.0001 69C31.4425 69 32.8833 68.6151 34.1753 67.843L55.8235 54.9146C58.4073 53.3711 60.0001 50.5179 60.0001 47.4318V21.5703C60.0001 18.4835 58.4073 15.6317 55.8242 14.0883Z" fill="#FEFEFE"/>
<path fill-rule="evenodd" clip-rule="evenodd" d="M26.5808 66.5189L4.93259 53.5905C2.81517 52.3255 1.49981 49.9659 1.49981 47.4313V21.5707C1.49981 19.0361 2.81517 16.6765 4.93184 15.4123L26.5808 2.48156C27.6187 1.86161 28.8011 1.53376 30 1.53376C31.1982 1.53376 32.3805 1.86161 33.4192 2.48156L55.0674 15.4123C56.8515 16.478 58.0549 18.3234 58.3936 20.3932C57.6754 18.8513 56.0562 18.4321 54.1693 19.5412L33.689 32.2703C31.1354 33.7727 29.2524 35.4583 29.2509 38.5565V63.9501C29.2493 65.8054 29.994 67.0073 31.1377 67.3557C30.762 67.4211 30.3833 67.4667 30 67.4667C28.8011 67.4667 27.6187 67.1389 26.5808 66.5189ZM55.8241 14.0879L34.1759 1.15799C32.884 0.385906 31.4416 0.000244141 30 0.000244141C28.5576 0.000244141 27.1153 0.385906 25.8234 1.15799L4.17513 14.0879C1.59204 15.6313 0 18.4839 0 21.5707V47.4313C0 50.5174 1.59204 53.3707 4.17589 54.9141L25.8241 67.8433C27.1168 68.6146 28.5576 69.0002 30 69.0002C31.4424 69.0002 32.8832 68.6146 34.1751 67.8433L55.8241 54.9141C58.408 53.3707 60 50.5174 60 47.4313V21.5707C60 18.4839 58.408 15.6313 55.8241 14.0879Z" fill="#181F21"/>
<path fill-rule="evenodd" clip-rule="evenodd" d="M49.7808 50.0332L45.2108 53.1263C45.0897 53.206 45.0006 53.2959 45 53.4604V54.8127C45 54.978 45.0981 55.0468 45.2192 54.9664L49.8597 51.7769C49.9808 51.6971 49.9994 51.5442 50 51.3797V50.1868C50 50.0223 49.902 49.9535 49.7808 50.0332Z" fill="#47B353"/>
<path fill-rule="evenodd" clip-rule="evenodd" d="M38.9574 38.0299C39.1322 37.9437 39.276 38.0498 39.2783 38.2724L39.2964 40.0907C40.0782 39.7878 40.7571 39.7067 41.3723 39.8453C41.5055 39.8799 41.5646 40.0568 41.5101 40.2669L41.0991 41.8781C41.0673 41.9997 40.997 42.1228 40.9122 42.1994C40.8766 42.2333 40.8403 42.2599 40.804 42.2776C40.7487 42.3048 40.6942 42.3137 40.642 42.3034C40.3613 42.2414 39.6938 42.0992 38.6433 42.6173C37.5414 43.1605 37.1562 44.0929 37.1638 44.785C37.1729 45.6113 37.608 45.8619 39.111 45.8869C41.1135 45.9193 41.9785 46.7714 41.9997 48.7356C42.0201 50.6645 40.9629 52.7356 39.3456 54.0048L39.3812 55.8047C39.3835 56.0214 39.2389 56.2698 39.0641 56.356L37.9698 56.97C37.7942 57.0562 37.6504 56.9501 37.6481 56.7334L37.6292 54.963C36.6916 55.3426 35.7418 55.434 35.1348 55.1967C35.0206 55.1532 34.9714 54.9888 35.0168 54.8016L35.4133 53.1742C35.4451 53.0459 35.5147 52.9177 35.6093 52.8359C35.6426 52.8042 35.6775 52.7799 35.7123 52.7629C35.7751 52.7319 35.8364 52.7253 35.8886 52.7445C36.5425 52.959 37.3787 52.8587 38.1832 52.4622C39.2049 51.9588 39.8883 50.9438 39.8777 49.9356C39.8678 49.0209 39.3593 48.6406 38.1227 48.6317C36.5485 48.6361 35.0811 48.3339 35.0569 46.0771C35.0372 44.219 36.0294 42.2857 37.5997 41.0629L37.58 39.246C37.5778 39.0227 37.7178 38.7773 37.8979 38.6888L38.9574 38.0299Z" fill="#FEFEFE"/>
</svg>
