<svg width="51" height="73" viewBox="0 0 51 73" fill="none" xmlns="http://www.w3.org/2000/svg">
<g clip-path="url(#clip0)">
<path d="M51 14.3462L46.3538 67.1285L25.4688 73L4.64131 67.1367L0 14.3462H51Z" fill="#264DE4"/>
<path d="M42.3761 63.7675L46.3466 18.6626H25.5V68.5121L42.3761 63.7675Z" fill="#2965F1"/>
<path d="M10.64 38.2419L11.2123 44.7164H25.4999V38.2419H10.64Z" fill="#EBEBEB"/>
<path d="M25.5001 25.1372H25.478H9.49036L10.0707 31.6118H25.5001V25.1372Z" fill="#EBEBEB"/>
<path d="M25.5001 61.7932V55.057L25.4721 55.0645L18.3614 53.1175L17.9069 47.9537H14.4517H11.4977L12.3922 58.1197L25.4707 61.8015L25.5001 61.7932Z" fill="#EBEBEB"/>
<path d="M12.0026 0H19.7355V3.2793H15.2363V6.55859H19.7355V9.83789H12.0026V0Z" fill="black"/>
<path d="M21.282 0H29.0149V2.85156H24.5158V3.42188H29.0149V9.98047H21.282V6.98633H25.7811V6.41602H21.282V0Z" fill="black"/>
<path d="M30.5615 0H38.2945V2.85156H33.7953V3.42188H38.2945V9.98047H30.5615V6.98633H35.0607V6.41602H30.5615V0Z" fill="black"/>
<path d="M33.3399 44.7163L32.5988 53.1133L25.4779 55.0624V61.7983L38.5668 58.1197L38.6628 57.0258L40.1632 39.9804L40.319 38.2419L41.4716 25.1372H25.4779V31.6118H34.4745L33.8936 38.2419H25.4779V44.7163H33.3399Z" fill="white"/>
</g>
<defs>
<clipPath id="clip0">
<rect width="51" height="73" fill="white"/>
</clipPath>
</defs>
</svg>
