<svg width="67" height="67" viewBox="0 0 67 67" fill="none" xmlns="http://www.w3.org/2000/svg">
<path d="M33.5 20.1393C30.8575 20.1393 28.2744 20.9229 26.0772 22.391C23.88 23.8591 22.1676 25.9457 21.1563 28.3871C20.1451 30.8284 19.8805 33.5148 20.396 36.1066C20.9115 38.6983 22.184 41.079 24.0526 42.9475C25.9211 44.816 28.3017 46.0885 30.8935 46.604C33.4852 47.1196 36.1716 46.855 38.613 45.8437C41.0543 44.8325 43.141 43.12 44.6091 40.9228C46.0772 38.7257 46.8608 36.1425 46.8608 33.5C46.8563 29.9579 45.4472 26.5622 42.9425 24.0575C40.4379 21.5529 37.0421 20.1438 33.5 20.1393Z" fill="white"/>
<path d="M52.6827 21.3261C56.0447 21.3261 58.7702 18.6006 58.7702 15.2386C58.7702 11.8765 56.0447 9.151 52.6827 9.151C49.3206 9.151 46.5951 11.8765 46.5951 15.2386C46.5951 18.6006 49.3206 21.3261 52.6827 21.3261Z" fill="white"/>
<path d="M60.177 21.3563L59.9218 20.7962L59.5148 21.2569C58.5177 22.3891 57.2564 23.2576 55.8429 23.7851L55.4504 23.929L55.61 24.3124C56.8266 27.2225 57.4512 30.3459 57.4473 33.5001C57.4473 46.7064 46.7037 57.4473 33.5 57.4473C20.2963 57.4473 9.55273 46.7064 9.55273 33.5001C9.55273 20.2937 20.2937 9.5528 33.5 9.5528C37.0515 9.54538 40.5592 10.337 43.7633 11.869L44.1389 12.0391L44.3024 11.657C44.899 10.2717 45.8275 9.05467 47.006 8.11334L47.4863 7.72992L46.9406 7.45905C42.7899 5.30034 38.1785 4.17791 33.5 4.18756C17.3376 4.18756 4.1875 17.3376 4.1875 33.5001C4.1875 49.6625 17.3376 62.8126 33.5 62.8126C49.6624 62.8126 62.8125 49.6625 62.8125 33.5001C62.8194 29.3095 61.9203 25.167 60.177 21.3563Z" fill="white"/>
</svg>
