<svg width="49" height="49" viewBox="0 0 49 49" fill="none" xmlns="http://www.w3.org/2000/svg">
<path d="M44.2148 0H4.78516C2.14239 0 0 2.14239 0 4.78516V44.2148C0 46.8576 2.14239 49 4.78516 49H44.2148C46.8576 49 49 46.8576 49 44.2148V4.78516C49 2.14239 46.8576 0 44.2148 0Z" fill="#3178C6"/>
<path fill-rule="evenodd" clip-rule="evenodd" d="M30.3379 38.9512V43.7363C31.1131 44.1383 32.0605 44.435 33.1133 44.6359C34.166 44.8369 35.3145 44.9326 36.4629 44.9326C37.6113 44.9326 38.6641 44.8273 39.7168 44.6072C40.7695 44.3871 41.6309 44.0234 42.3965 43.5545C43.1717 43.0473 43.832 42.4061 44.2148 41.5447C44.5977 40.6834 44.8943 39.7264 44.8943 38.4822C44.8943 37.6113 44.7604 36.8553 44.502 36.1854C44.2436 35.5154 43.8703 34.9412 43.3535 34.4627C42.8654 33.9555 42.3008 33.5057 41.6309 33.1229C40.9609 32.74 40.1953 32.3381 39.334 31.9744C38.7023 31.716 38.1855 31.4672 37.6113 31.2184C37.1137 30.9695 36.683 30.7207 36.3672 30.4719C36.0131 30.2135 35.7451 29.9455 35.5537 29.668C35.3623 29.3809 35.2666 29.065 35.2666 28.7109C35.2666 28.3856 35.3518 28.0889 35.525 27.8209C35.6982 27.5529 35.9365 27.3328 36.2428 27.1414C36.549 26.95 36.9318 26.8064 37.3912 26.7012C37.841 26.5959 38.3387 26.5481 38.9225 26.5481C39.3244 26.5481 39.7455 26.5777 40.1666 26.638C40.6068 26.6983 41.0566 26.7911 41.5064 26.9155C41.9563 27.04 42.3965 27.1931 42.8463 27.3845C43.2674 27.5759 43.6598 27.796 43.9947 28.0448V23.5468C43.2674 23.2693 42.4635 23.0587 41.6021 22.9247C40.7408 22.7907 39.7838 22.7238 38.6354 22.7238C37.4869 22.7238 36.4342 22.8482 35.3814 23.0874C34.3287 23.3267 33.4674 23.7095 32.7018 24.2359C31.9266 24.7527 31.3619 25.3843 30.8834 26.2456C30.4336 27.0495 30.2135 27.9683 30.2135 29.1167C30.2135 30.5523 30.625 31.7964 31.4576 32.7534C32.2807 33.8062 33.5631 34.5718 35.19 35.3374C35.8504 35.6054 36.4342 35.8734 37.0084 36.1318C37.5826 36.3902 38.0611 36.6581 38.4439 36.9357C38.8555 37.2132 39.1809 37.5195 39.401 37.8448C39.6402 38.1702 39.7646 38.553 39.7646 38.9933C39.7646 39.2995 39.69 39.5866 39.5445 39.8546C39.3991 40.1226 39.1713 40.3523 38.865 40.5437C38.5588 40.7351 38.1855 40.8882 37.7166 41.003C37.2668 41.1083 36.7596 41.1657 36.0896 41.1657C35.0369 41.1657 33.9842 40.9839 33.0271 40.6202C31.9744 40.2566 31.0174 39.7111 30.1561 38.9933L30.3379 38.9512ZM22.2988 27.1797H28.4238V23.2559H11.293V27.1797H17.418V44.6934H22.2988V27.1797Z" fill="white"/>
</svg>
